<svg xmlns="http://www.w3.org/2000/svg" xmlns:xlink="http://www.w3.org/1999/xlink" width="500" zoomAndPan="magnify" viewBox="0 0 375 374.999991" height="500" preserveAspectRatio="xMidYMid meet" version="1.0"><defs><clipPath id="f14bcb311b"><path d="M 18.75 18.75 L 356.25 18.75 L 356.25 356.25 L 18.75 356.25 Z M 18.75 18.75 " clip-rule="nonzero"/></clipPath><clipPath id="5c1f6d5a48"><path d="M 187.5 18.75 C 94.300781 18.75 18.75 94.300781 18.75 187.5 C 18.75 280.699219 94.300781 356.25 187.5 356.25 C 280.699219 356.25 356.25 280.699219 356.25 187.5 C 356.25 94.300781 280.699219 18.75 187.5 18.75 Z M 187.5 18.75 " clip-rule="nonzero"/></clipPath></defs><g clip-path="url(#f14bcb311b)"><g clip-path="url(#5c1f6d5a48)"><path fill="#007acc" d="M 18.75 18.75 L 356.25 18.75 L 356.25 356.25 L 18.75 356.25 Z M 18.75 18.75 " fill-opacity="1" fill-rule="nonzero"/></g></g><path fill="#ffffff" d="M 177.46875 340.429688 C 113.734375 336.046875 57.765625 285.589844 41.972656 224.503906 C 27.398438 161.164062 56.339844 89.84375 112.808594 56.773438 C 149.132812 34.988281 194.707031 32.265625 234.910156 43.613281 C 284.5625 58.933594 322.359375 103.300781 335.628906 152.796875 C 347.546875 198.410156 338.949219 250.203125 307.269531 286.148438 C 278.578125 322.03125 232.710938 342.707031 186.84375 340.863281 C 183.71875 340.796875 180.59375 340.648438 177.476562 340.421875 Z M 215.460938 333.25 C 226.894531 332.25 224.886719 328.726562 214.484375 327.832031 C 195.898438 324.242188 175.832031 324.148438 157.894531 330.445312 C 173.683594 338.089844 194.660156 336.121094 212.335938 333.839844 Z M 159.148438 323.160156 C 167.3125 314.796875 158.796875 294.816406 151.664062 286.898438 C 135.722656 278.730469 123.359375 265.382812 108.777344 255.3125 C 97.796875 251.300781 87.085938 258.929688 76.46875 261.515625 C 76.421875 272.046875 75.738281 283.9375 84.96875 291.261719 C 100.167969 306.324219 118.511719 319.527344 139.210938 325.527344 C 145.859375 325.839844 152.84375 325.433594 159.148438 323.160156 Z M 246.546875 323.582031 C 273 312.136719 297.8125 293.746094 312.726562 268.714844 C 318.097656 261.511719 322.042969 248.898438 308.011719 253.070312 C 290.390625 264.191406 274.480469 277.953125 256.425781 288.488281 C 245.480469 297.175781 237.597656 309.136719 229.816406 320.574219 C 232.53125 326.90625 241.347656 325.398438 246.546875 323.582031 Z M 264.476562 277.589844 C 277.773438 266.644531 297.011719 259.589844 303.996094 242.984375 C 307.148438 229.925781 307.394531 216.410156 308.710938 203.089844 C 295.460938 191.289062 279.191406 183.289062 263.28125 175.726562 C 247.558594 176.988281 234.851562 191 222.417969 200.078125 C 215.792969 203.75 217.496094 211.996094 215.695312 218.320312 C 213.285156 233.105469 210.496094 247.847656 208.890625 262.75 C 221.261719 271.933594 235.070312 280.363281 250.113281 283.90625 C 255.546875 283.972656 260.0625 280.277344 264.476562 277.589844 Z M 169.640625 279.894531 C 181.683594 275.285156 197.617188 271.804688 203.269531 259.003906 C 207.460938 241.070312 209.792969 222.714844 212.007812 204.441406 C 200.042969 193.03125 187.273438 180.996094 171.585938 175.039062 C 158.054688 174.820312 146.585938 184.425781 134.542969 189.667969 C 118.34375 194.078125 112.714844 208.863281 112.007812 224.128906 C 107.253906 239.234375 112.707031 254.746094 126.371094 263.070312 C 138.300781 271.894531 153.636719 285.964844 169.640625 279.894531 Z M 68.855469 258.726562 C 59.085938 240.609375 52.347656 220.765625 49.660156 200.347656 C 39.996094 202.300781 48.777344 226.082031 51.441406 235.785156 C 55.996094 248.890625 62.964844 260.941406 70.191406 272.722656 C 71.511719 267.875 72.292969 263.0625 68.855469 258.726562 Z M 64.648438 178.066406 C 68.914062 171.957031 75.703125 167.132812 78.261719 160.152344 C 82.78125 139.019531 90.144531 118.617188 100.683594 99.722656 C 100.238281 87.515625 86.644531 80.097656 79.875 93.550781 C 60.585938 118.449219 45.457031 148.792969 44.792969 180.816406 C 42.253906 191.800781 51.789062 199.792969 57.277344 186.785156 C 59.738281 183.882812 62.195312 180.976562 64.648438 178.066406 Z M 313.011719 193.207031 C 321.1875 182.449219 332.484375 169.679688 329.546875 155.109375 C 324.433594 127.480469 310.28125 101.246094 288.546875 83.242188 C 282.09375 80.496094 270.300781 70.402344 265.800781 79.9375 C 259.148438 92.75 242.601562 104.863281 248.5625 120.820312 C 253.671875 136.574219 257.402344 153.035156 264.851562 167.867188 C 278.558594 178.59375 294.433594 186.929688 310.394531 193.964844 Z M 130.65625 186.042969 C 143.3125 179.636719 155.605469 172.554688 167.949219 165.566406 C 172.109375 150.992188 177.332031 136.753906 182.199219 122.417969 C 182.878906 106.921875 169.089844 95.789062 159.863281 84.917969 C 150.804688 70.378906 135.472656 81.53125 124.289062 86.847656 C 99.675781 100.027344 94.023438 129.039062 85.660156 153.253906 C 86.820312 162.320312 95.105469 169.890625 101.148438 176.667969 C 109.503906 185.078125 118.898438 196.308594 130.65625 186.042969 Z M 221.433594 107.707031 C 227.980469 106.808594 235.292969 107.46875 241.371094 105.609375 C 250.460938 95.796875 258.464844 84.300781 262.25 71.402344 C 257.679688 58.402344 242.535156 52.476562 230.375 48.050781 C 214.882812 43.429688 198.296875 41.167969 182.214844 42.992188 C 170.609375 48.933594 149.792969 66.175781 161.546875 79.539062 C 170.15625 89.816406 179.320312 99.609375 188.652344 109.230469 C 199.597656 109.335938 210.519531 108.480469 221.433594 107.707031 Z M 221.433594 107.707031 " fill-opacity="1" fill-rule="nonzero"/></svg>