<svg xmlns="http://www.w3.org/2000/svg" xmlns:xlink="http://www.w3.org/1999/xlink" width="400" zoomAndPan="magnify" viewBox="0 0 300 149.999998" height="200" preserveAspectRatio="xMidYMid meet" version="1.0"><defs><g/><clipPath id="52abc1b553"><path d="M 57.90625 51.941406 L 226.558594 51.941406 L 226.558594 141.890625 L 57.90625 141.890625 Z M 57.90625 51.941406 " clip-rule="nonzero"/></clipPath><clipPath id="93c33c609c"><path d="M 66.308594 51.941406 L 217.890625 51.941406 C 222.535156 51.941406 226.296875 55.703125 226.296875 60.34375 L 226.296875 133.488281 C 226.296875 138.128906 222.535156 141.890625 217.890625 141.890625 L 66.308594 141.890625 C 61.667969 141.890625 57.90625 138.128906 57.90625 133.488281 L 57.90625 60.34375 C 57.90625 55.703125 61.667969 51.941406 66.308594 51.941406 Z M 66.308594 51.941406 " clip-rule="nonzero"/></clipPath><clipPath id="92638f8555"><path d="M 144.890625 78.597656 L 161.628906 78.597656 L 161.628906 100.199219 L 144.890625 100.199219 Z M 144.890625 78.597656 " clip-rule="nonzero"/></clipPath><clipPath id="cd246820c0"><path d="M 161 79 L 161.628906 79 L 161.628906 87 L 161 87 Z M 161 79 " clip-rule="nonzero"/></clipPath><clipPath id="9c0a5d9b1c"><path d="M 150.78125 78.597656 L 167.519531 78.597656 L 167.519531 100.199219 L 150.78125 100.199219 Z M 150.78125 78.597656 " clip-rule="nonzero"/></clipPath><clipPath id="351ae47196"><path d="M 150.78125 79 L 152 79 L 152 87 L 150.78125 87 Z M 150.78125 79 " clip-rule="nonzero"/></clipPath><clipPath id="925c56ecfa"><path d="M 186.175781 1.542969 L 285 1.542969 L 285 100.363281 L 186.175781 100.363281 Z M 186.175781 1.542969 " clip-rule="nonzero"/></clipPath><clipPath id="6a6f835a56"><path d="M 235.589844 1.542969 C 208.300781 1.542969 186.175781 23.664062 186.175781 50.953125 C 186.175781 78.242188 208.300781 100.363281 235.589844 100.363281 C 262.878906 100.363281 285 78.242188 285 50.953125 C 285 23.664062 262.878906 1.542969 235.589844 1.542969 Z M 235.589844 1.542969 " clip-rule="nonzero"/></clipPath></defs><rect x="-30" width="360" fill="#ffffff" y="-15" height="179.999997" fill-opacity="1"/><rect x="-30" width="360" fill="#ffffff" y="-15" height="179.999997" fill-opacity="1"/><g clip-path="url(#52abc1b553)"><g clip-path="url(#93c33c609c)"><path fill="#007acc" d="M 57.90625 51.941406 L 226.207031 51.941406 L 226.207031 141.890625 L 57.90625 141.890625 Z M 57.90625 51.941406 " fill-opacity="1" fill-rule="nonzero"/></g></g><path stroke-linecap="butt" transform="matrix(1.712295, 0, 0, 1.712295, 44.477242, 85.661335)" fill="none" stroke-linejoin="miter" d="M 25.347065 6.149681 L 24.961526 8.837046 L 15.024208 8.837046 C 13.399926 8.837046 12.254717 8.878109 11.650174 9.012706 C 10.972629 9.097114 10.420556 9.357181 10.078362 9.69025 C 9.733886 10.034726 9.482944 10.586799 9.266221 11.357876 C 9.14075 11.90995 8.962809 13.064285 8.714148 14.857382 C 8.536207 15.877121 8.328609 17.375931 8.025197 19.417689 C 7.776536 21.470854 7.557532 22.960539 7.43206 23.980278 C 7.265526 25.355899 7.13093 26.250166 7.046522 26.761176 C 7.046522 27.094245 7.005458 27.43872 7.005458 27.698788 C 7.005458 28.376332 7.171993 28.896467 7.43206 29.229536 C 7.683003 29.489604 8.109605 29.697202 8.714148 29.834079 C 9.307284 29.916206 10.587091 30.000614 12.546722 30.000614 L 22.107627 30.000614 C 24.023914 30.000614 25.30372 29.957269 25.899138 29.875143 C 26.544745 29.740546 27.01241 29.574012 27.356885 29.364133 C 27.824551 29.021939 28.169026 28.376332 28.376624 27.520847 C 28.543158 26.968774 28.721099 25.771094 28.928697 23.980278 L 29.147701 22.408466 L 32.261668 0.140752 C 30.427508 0.140752 29.229828 0.140752 28.636691 0.222879 C 27.824551 0.307287 27.220008 0.567354 26.845875 0.91183 C 26.5014 1.201554 26.200269 1.753627 25.992671 2.524705 C 25.81473 3.129248 25.607133 4.315521 25.347065 6.149681 Z M 16.221888 14.857382 L 24.106041 14.857382 L 23.086302 22.408466 C 23.001894 22.835068 22.960831 23.083729 22.878705 23.26167 C 22.83536 23.510331 22.741827 23.688272 22.616356 23.77268 C 22.534229 23.854807 22.408758 23.89587 22.230817 23.939215 C 22.064282 23.939215 21.722088 23.980278 21.128952 23.980278 L 13.49346 23.980278 L 14.556543 16.429194 C 14.638669 16.011717 14.682014 15.710586 14.682014 15.585115 C 14.764141 15.325047 14.81661 15.199576 14.898737 15.106043 C 14.983145 14.980572 15.149679 14.898445 15.32762 14.898445 C 15.494155 14.857382 15.795286 14.857382 16.221888 14.857382 Z M 33.454785 14.814037 C 32.768116 20.022232 32.341513 23.042666 32.172698 23.939215 C 31.955975 25.522433 31.830504 26.583235 31.78944 27.146715 L 31.78944 27.657725 C 31.78944 28.250861 31.91263 28.718526 32.090571 29.063002 C 32.341513 29.407477 32.768116 29.656138 33.454785 29.790735 C 34.047922 29.875143 35.245601 29.957269 37.079762 29.957269 L 47.099207 29.957269 C 49.024619 29.957269 50.265643 29.875143 50.85878 29.790735 C 51.670921 29.615075 52.222994 29.311663 52.567469 28.802934 C 52.81613 28.417396 53.035135 27.824259 53.201669 27.053182 C 53.32714 26.501108 53.5028 25.479088 53.712679 23.939215 L 54.992485 14.814037 C 55.252553 13.189756 55.378024 12.085609 55.378024 11.576881 L 55.378024 11.147997 C 55.378024 10.502391 55.295897 10.034726 55.076893 9.731314 C 54.867014 9.398245 54.483756 9.138177 53.972747 9.05605 C 53.37961 8.878109 52.056459 8.837046 49.962231 8.837046 L 40.152665 8.837046 C 38.443976 8.837046 37.28736 8.837046 36.694223 8.930579 C 35.838738 9.012706 35.245601 9.263648 34.860062 9.69025 C 34.43346 10.116852 34.088985 10.972338 33.840324 12.295488 C 33.746791 12.72209 33.62132 13.575295 33.454785 14.814037 Z M 41.599006 14.814037 L 48.942492 14.814037 L 47.870284 22.408466 C 47.785876 22.917195 47.744813 23.220607 47.660405 23.387142 C 47.660405 23.562801 47.566872 23.688272 47.484745 23.77268 C 47.400338 23.854807 47.274866 23.89587 47.099207 23.939215 L 38.224972 23.939215 L 39.29718 16.38813 C 39.338243 16.137188 39.381588 15.918184 39.381588 15.836057 C 39.463714 15.450518 39.548122 15.199576 39.641655 15.106043 C 39.767127 14.980572 39.974724 14.898445 40.234792 14.857382 C 40.44239 14.814037 40.921462 14.814037 41.599006 14.814037 Z M 41.599006 14.814037 " stroke="#007acc" stroke-width="11.200008" stroke-opacity="1" stroke-miterlimit="4"/><g fill="#ffffff" fill-opacity="1"><g transform="translate(55.740935, 137.030199)"><g><path d="M 32.140625 -40.832031 L 31.484375 -36.230469 L 14.464844 -36.230469 C 11.6875 -36.230469 9.714844 -36.15625 8.691406 -35.9375 C 7.523438 -35.792969 6.574219 -35.355469 5.988281 -34.769531 C 5.40625 -34.1875 4.96875 -33.234375 4.601562 -31.921875 C 4.382812 -30.972656 4.089844 -29 3.652344 -25.929688 C 3.359375 -24.179688 2.996094 -21.621094 2.484375 -18.117188 C 2.046875 -14.609375 1.679688 -12.050781 1.460938 -10.300781 C 1.167969 -7.960938 0.949219 -6.429688 0.804688 -5.550781 C 0.804688 -4.96875 0.730469 -4.382812 0.730469 -3.945312 C 0.730469 -2.777344 1.023438 -1.898438 1.460938 -1.316406 C 1.898438 -0.875 2.628906 -0.511719 3.652344 -0.292969 C 4.675781 -0.144531 6.867188 0 10.226562 0 L 26.589844 0 C 29.875 0 32.066406 -0.0742188 33.089844 -0.21875 C 34.1875 -0.4375 34.988281 -0.730469 35.574219 -1.09375 C 36.378906 -1.679688 36.960938 -2.777344 37.328125 -4.238281 C 37.617188 -5.1875 37.910156 -7.230469 38.277344 -10.300781 L 38.640625 -13.003906 L 43.972656 -51.132812 C 40.832031 -51.132812 38.789062 -51.132812 37.765625 -50.988281 C 36.378906 -50.839844 35.355469 -50.402344 34.695312 -49.816406 C 34.113281 -49.304688 33.601562 -48.355469 33.234375 -47.042969 C 32.945312 -46.019531 32.578125 -43.972656 32.140625 -40.832031 Z M 16.507812 -25.929688 L 30.023438 -25.929688 L 28.269531 -13.003906 C 28.121094 -12.273438 28.050781 -11.832031 27.902344 -11.542969 C 27.832031 -11.101562 27.683594 -10.8125 27.464844 -10.664062 C 27.320312 -10.519531 27.101562 -10.445312 26.808594 -10.371094 C 26.515625 -10.371094 25.929688 -10.300781 24.910156 -10.300781 L 11.832031 -10.300781 L 13.660156 -23.230469 C 13.804688 -23.960938 13.878906 -24.46875 13.878906 -24.691406 C 14.023438 -25.128906 14.097656 -25.347656 14.242188 -25.492188 C 14.390625 -25.710938 14.683594 -25.859375 14.972656 -25.859375 C 15.265625 -25.929688 15.777344 -25.929688 16.507812 -25.929688 Z M 16.507812 -25.929688 "/></g></g></g><g fill="#ffffff" fill-opacity="1"><g transform="translate(98.17718, 137.030199)"><g><path d="M 3.578125 -26.003906 C 2.410156 -17.09375 1.679688 -11.90625 1.386719 -10.371094 C 1.023438 -7.667969 0.804688 -5.84375 0.730469 -4.894531 L 0.730469 -4.015625 C 0.730469 -2.996094 0.949219 -2.191406 1.242188 -1.605469 C 1.679688 -1.023438 2.410156 -0.585938 3.578125 -0.363281 C 4.601562 -0.21875 6.648438 -0.0742188 9.789062 -0.0742188 L 26.953125 -0.0742188 C 30.242188 -0.0742188 32.359375 -0.21875 33.382812 -0.363281 C 34.769531 -0.65625 35.71875 -1.167969 36.304688 -2.046875 C 36.742188 -2.703125 37.109375 -3.726562 37.398438 -5.039062 C 37.617188 -5.988281 37.910156 -7.742188 38.277344 -10.371094 L 40.46875 -26.003906 C 40.90625 -28.78125 41.125 -30.679688 41.125 -31.554688 L 41.125 -32.285156 C 41.125 -33.382812 40.980469 -34.1875 40.613281 -34.695312 C 40.25 -35.28125 39.589844 -35.71875 38.714844 -35.867188 C 37.691406 -36.15625 35.425781 -36.230469 31.847656 -36.230469 L 15.046875 -36.230469 C 12.125 -36.230469 10.152344 -36.230469 9.128906 -36.085938 C 7.667969 -35.9375 6.648438 -35.5 5.988281 -34.769531 C 5.257812 -34.039062 4.675781 -32.578125 4.238281 -30.3125 C 4.089844 -29.582031 3.871094 -28.121094 3.578125 -26.003906 Z M 17.53125 -26.003906 L 30.09375 -26.003906 L 28.269531 -13.003906 C 28.121094 -12.125 28.050781 -11.613281 27.902344 -11.320312 C 27.902344 -11.03125 27.757812 -10.8125 27.613281 -10.664062 C 27.464844 -10.519531 27.246094 -10.445312 26.953125 -10.371094 L 11.761719 -10.371094 L 13.585938 -23.300781 C 13.660156 -23.738281 13.734375 -24.105469 13.734375 -24.25 C 13.878906 -24.910156 14.023438 -25.347656 14.171875 -25.492188 C 14.390625 -25.710938 14.753906 -25.859375 15.195312 -25.929688 C 15.558594 -26.003906 16.363281 -26.003906 17.53125 -26.003906 Z M 17.53125 -26.003906 "/></g></g></g><g fill="#ffffff" fill-opacity="1"><g transform="translate(139.964469, 137.030199)"><g/></g></g><path stroke-linecap="butt" transform="matrix(1.712295, 0, 0, 1.712295, 133.806703, 87.704594)" fill="none" stroke-linejoin="miter" d="M 21.643744 6.149512 L 21.258205 8.836877 L 11.320887 8.836877 C 9.696605 8.836877 8.551396 8.87794 7.946853 9.014818 C 7.269308 9.096944 6.717235 9.357012 6.375041 9.690081 C 6.030565 10.034556 5.781904 10.586629 5.5629 11.357707 C 5.437429 11.90978 5.259488 13.064115 5.010827 14.857212 C 4.832886 15.876951 4.625288 17.378043 4.321876 19.41752 C 4.073215 21.470685 3.854211 22.96037 3.728739 23.980109 C 3.562205 25.355729 3.427609 26.249996 3.343201 26.761006 C 3.343201 27.094075 3.302137 27.438551 3.302137 27.698618 C 3.302137 28.376163 3.468672 28.896298 3.728739 29.229367 C 3.979682 29.489434 4.406284 29.697032 5.010827 29.83391 C 5.603963 29.916036 6.883769 30.000444 8.843401 30.000444 L 18.404306 30.000444 C 20.320593 30.000444 21.600399 29.959381 22.195817 29.874973 C 22.841423 29.740377 23.309089 29.573842 23.653564 29.363963 C 24.12123 29.021769 24.465705 28.376163 24.673303 27.520677 C 24.839837 26.968604 25.017778 25.770925 25.225376 23.980109 L 25.44438 22.408297 L 28.558347 0.140583 C 26.726468 0.140583 25.528788 0.140583 24.93337 0.222709 C 24.12123 0.307117 23.516687 0.567185 23.142554 0.91166 C 22.798079 1.201384 22.496948 1.753458 22.28935 2.524535 C 22.111409 3.129078 21.903811 4.317632 21.643744 6.149512 Z M 12.518567 14.857212 L 20.40272 14.857212 L 19.382981 22.408297 C 19.298573 22.834899 19.25751 23.08356 19.175383 23.261501 C 19.132039 23.512443 19.038506 23.688103 18.913035 23.772511 C 18.830908 23.854637 18.705437 23.895701 18.529777 23.939045 C 18.363243 23.939045 18.018767 23.980109 17.425631 23.980109 L 9.790138 23.980109 L 10.853222 16.429024 C 10.935348 16.011547 10.978693 15.710416 10.978693 15.584945 C 11.060819 15.324878 11.113289 15.199407 11.197697 15.105873 C 11.279824 14.980402 11.446358 14.898276 11.624299 14.898276 C 11.790834 14.857212 12.091964 14.857212 12.518567 14.857212 Z M 38.322287 0.140583 C 36.312467 0.140583 35.000722 0.181646 34.396179 0.266054 C 33.720916 0.34818 33.157437 0.608248 32.824368 0.952723 C 32.479892 1.285792 32.178761 1.931399 31.971163 2.869011 C 31.834286 3.380021 31.667751 4.493292 31.407684 6.108449 L 31.282213 7.265065 L 37.343612 7.265065 Z M 31.074615 8.836877 L 29.616868 19.168859 L 28.086119 30.000444 C 30.221411 30.000444 31.585625 29.916036 32.178761 29.790565 C 32.990902 29.614906 33.542975 29.27043 33.887451 28.761701 C 34.147518 28.376163 34.355116 27.824089 34.480587 27.053012 C 34.615184 26.500939 34.781718 25.478919 35.000722 24.032578 L 35.897271 17.460169 L 37.124607 8.836877 Z M 56.923961 8.836877 L 40.416515 8.836877 L 40.416515 9.564609 C 40.416515 10.680162 40.457578 11.524241 40.457578 12.044376 C 40.541986 12.981988 40.708521 13.616188 40.968588 14.001727 C 41.269719 14.387266 41.780729 14.638208 42.5404 14.772805 C 43.062817 14.813868 44.123618 14.857212 45.654367 14.857212 L 55.048737 14.857212 C 54.998549 15.324878 54.955204 15.62829 54.914141 15.794824 C 54.914141 15.961359 54.873077 16.095955 54.78867 16.180363 C 54.706543 16.26249 54.569665 16.346898 54.403131 16.387961 C 54.321004 16.387961 54.060937 16.429024 53.727868 16.429024 L 44.812569 16.429024 C 43.229351 16.429024 42.113798 16.481494 41.520662 16.563621 C 40.790647 16.648028 40.238574 16.908096 39.855317 17.282228 C 39.519966 17.626704 39.218836 18.313373 38.999831 19.335393 C 38.917705 19.846403 38.75117 20.866142 38.532166 22.408297 L 38.281224 23.980109 C 38.062219 25.688798 37.936748 26.843133 37.895685 27.438551 L 37.895685 27.698618 C 37.895685 28.376163 37.980093 28.843828 38.24016 29.188304 C 38.488821 29.489434 38.917705 29.697032 39.519966 29.83391 C 40.115384 29.916036 41.436254 30.000444 43.489419 30.000444 L 52.737786 30.000444 C 54.873077 30.000444 56.237291 29.916036 56.841834 29.83391 C 57.434971 29.697032 57.902636 29.530498 58.247112 29.27043 C 58.632651 28.978424 58.924656 28.510759 59.100316 27.906216 C 59.310195 27.31308 59.570263 26.030992 59.818924 23.980109 L 60.423467 19.636524 L 61.101011 14.857212 C 61.320015 13.315057 61.445486 12.295319 61.445486 11.784309 C 61.48655 11.524241 61.48655 11.357707 61.48655 11.191172 C 61.48655 10.294624 61.278952 9.690081 60.850069 9.398075 C 60.590001 9.181352 60.163399 9.055881 59.570263 8.971473 C 59.059253 8.87794 58.164985 8.836877 56.923961 8.836877 Z M 45.57224 22.408297 L 53.976529 22.408297 C 53.935465 22.875962 53.894402 23.177093 53.851058 23.345909 C 53.809994 23.512443 53.768931 23.688103 53.675398 23.772511 C 53.634335 23.854637 53.549927 23.895701 53.383392 23.939045 C 53.298984 23.939045 53.038917 23.980109 52.696723 23.980109 L 44.333498 23.980109 C 44.427031 23.64704 44.468094 23.386972 44.468094 23.261501 C 44.509157 22.917025 44.552502 22.709428 44.634628 22.615894 C 44.719036 22.531487 44.812569 22.44936 44.935759 22.44936 C 45.020167 22.408297 45.227765 22.408297 45.57224 22.408297 Z M 45.57224 22.408297 " stroke="#007acc" stroke-width="11.200008" stroke-opacity="1" stroke-miterlimit="4"/><g fill="#ffffff" fill-opacity="1"><g transform="translate(138.729552, 139.073458)"><g><path d="M 32.140625 -40.832031 L 31.484375 -36.230469 L 14.464844 -36.230469 C 11.6875 -36.230469 9.714844 -36.15625 8.691406 -35.9375 C 7.523438 -35.792969 6.574219 -35.355469 5.988281 -34.769531 C 5.40625 -34.1875 4.96875 -33.234375 4.601562 -31.921875 C 4.382812 -30.972656 4.089844 -29 3.652344 -25.929688 C 3.359375 -24.179688 2.996094 -21.621094 2.484375 -18.117188 C 2.046875 -14.609375 1.679688 -12.050781 1.460938 -10.300781 C 1.167969 -7.960938 0.949219 -6.429688 0.804688 -5.550781 C 0.804688 -4.96875 0.730469 -4.382812 0.730469 -3.945312 C 0.730469 -2.777344 1.023438 -1.898438 1.460938 -1.316406 C 1.898438 -0.875 2.628906 -0.511719 3.652344 -0.292969 C 4.675781 -0.144531 6.867188 0 10.226562 0 L 26.589844 0 C 29.875 0 32.066406 -0.0742188 33.089844 -0.21875 C 34.1875 -0.4375 34.988281 -0.730469 35.574219 -1.09375 C 36.378906 -1.679688 36.960938 -2.777344 37.328125 -4.238281 C 37.617188 -5.1875 37.910156 -7.230469 38.277344 -10.300781 L 38.640625 -13.003906 L 43.972656 -51.132812 C 40.832031 -51.132812 38.789062 -51.132812 37.765625 -50.988281 C 36.378906 -50.839844 35.355469 -50.402344 34.695312 -49.816406 C 34.113281 -49.304688 33.601562 -48.355469 33.234375 -47.042969 C 32.945312 -46.019531 32.578125 -43.972656 32.140625 -40.832031 Z M 16.507812 -25.929688 L 30.023438 -25.929688 L 28.269531 -13.003906 C 28.121094 -12.273438 28.050781 -11.832031 27.902344 -11.542969 C 27.832031 -11.101562 27.683594 -10.8125 27.464844 -10.664062 C 27.320312 -10.519531 27.101562 -10.445312 26.808594 -10.371094 C 26.515625 -10.371094 25.929688 -10.300781 24.910156 -10.300781 L 11.832031 -10.300781 L 13.660156 -23.230469 C 13.804688 -23.960938 13.878906 -24.46875 13.878906 -24.691406 C 14.023438 -25.128906 14.097656 -25.347656 14.242188 -25.492188 C 14.390625 -25.710938 14.683594 -25.859375 14.972656 -25.859375 C 15.265625 -25.929688 15.777344 -25.929688 16.507812 -25.929688 Z M 16.507812 -25.929688 "/></g></g></g><g fill="#ffffff" fill-opacity="1"><g transform="translate(181.165797, 139.073458)"><g><path d="M 18.261719 -51.132812 C 14.828125 -51.132812 12.5625 -51.058594 11.542969 -50.914062 C 10.371094 -50.765625 9.421875 -50.328125 8.839844 -49.746094 C 8.253906 -49.160156 7.742188 -48.066406 7.378906 -46.457031 C 7.160156 -45.582031 6.867188 -43.683594 6.429688 -40.90625 L 6.207031 -38.933594 L 16.582031 -38.933594 Z M 5.84375 -36.230469 L 3.359375 -18.554688 L 0.730469 0 C 4.382812 0 6.71875 -0.144531 7.742188 -0.363281 C 9.128906 -0.65625 10.082031 -1.242188 10.664062 -2.117188 C 11.101562 -2.777344 11.46875 -3.726562 11.6875 -5.039062 C 11.90625 -5.988281 12.199219 -7.742188 12.5625 -10.226562 L 14.097656 -21.476562 L 16.214844 -36.230469 Z M 5.84375 -36.230469 "/></g></g></g><g fill="#ffffff" fill-opacity="1"><g transform="translate(197.965005, 139.073458)"><g><path d="M 33.308594 -36.230469 L 5.039062 -36.230469 L 5.039062 -34.988281 C 5.039062 -33.089844 5.113281 -31.628906 5.113281 -30.753906 C 5.257812 -29.144531 5.550781 -28.050781 5.988281 -27.390625 C 6.5 -26.734375 7.378906 -26.296875 8.691406 -26.078125 C 9.570312 -26.003906 11.394531 -25.929688 14.023438 -25.929688 L 30.09375 -25.929688 C 30.023438 -25.128906 29.949219 -24.617188 29.875 -24.324219 C 29.875 -24.03125 29.804688 -23.8125 29.65625 -23.667969 C 29.511719 -23.519531 29.292969 -23.375 29 -23.300781 C 28.851562 -23.300781 28.414062 -23.230469 27.832031 -23.230469 L 12.5625 -23.230469 C 9.859375 -23.230469 7.960938 -23.15625 6.9375 -23.007812 C 5.699219 -22.863281 4.746094 -22.425781 4.089844 -21.769531 C 3.507812 -21.183594 2.996094 -20.015625 2.628906 -18.261719 C 2.484375 -17.386719 2.191406 -15.632812 1.824219 -13.003906 L 1.386719 -10.300781 C 1.023438 -7.378906 0.804688 -5.40625 0.730469 -4.382812 L 0.730469 -3.945312 C 0.730469 -2.777344 0.875 -1.972656 1.316406 -1.386719 C 1.753906 -0.875 2.484375 -0.511719 3.507812 -0.292969 C 4.527344 -0.144531 6.792969 0 10.300781 0 L 26.152344 0 C 29.804688 0 32.140625 -0.144531 33.164062 -0.292969 C 34.1875 -0.511719 34.988281 -0.804688 35.574219 -1.242188 C 36.230469 -1.753906 36.742188 -2.554688 37.035156 -3.578125 C 37.398438 -4.601562 37.839844 -6.792969 38.277344 -10.300781 L 39.300781 -17.75 L 40.46875 -25.929688 C 40.832031 -28.5625 41.050781 -30.3125 41.050781 -31.191406 C 41.125 -31.628906 41.125 -31.921875 41.125 -32.214844 C 41.125 -33.746094 40.761719 -34.769531 40.03125 -35.28125 C 39.589844 -35.648438 38.859375 -35.867188 37.839844 -36.011719 C 36.960938 -36.15625 35.425781 -36.230469 33.308594 -36.230469 Z M 13.878906 -13.003906 L 28.269531 -13.003906 C 28.195312 -12.199219 28.121094 -11.6875 28.050781 -11.394531 C 27.976562 -11.101562 27.902344 -10.8125 27.757812 -10.664062 C 27.683594 -10.519531 27.539062 -10.445312 27.246094 -10.371094 C 27.101562 -10.371094 26.660156 -10.300781 26.078125 -10.300781 L 11.761719 -10.300781 C 11.90625 -10.882812 11.980469 -11.320312 11.980469 -11.542969 C 12.050781 -12.125 12.125 -12.492188 12.273438 -12.636719 C 12.417969 -12.78125 12.5625 -12.929688 12.78125 -12.929688 C 12.929688 -13.003906 13.292969 -13.003906 13.878906 -13.003906 Z M 13.878906 -13.003906 "/></g></g></g><path stroke-linecap="butt" transform="matrix(1.538405, 0, 0, 1.538405, 34.105558, 31.733939)" fill="none" stroke-linejoin="miter" d="M 26.694082 0.139937 C 24.652601 0.139937 23.289075 0.180563 22.644129 0.307521 C 22.049967 0.388774 21.539597 0.60968 21.196811 0.952466 C 20.851486 1.285096 20.549326 1.93258 20.341116 2.826363 C 20.257323 3.336733 20.038956 4.451423 19.790119 6.106952 L 19.655544 7.264807 L 25.716507 7.264807 L 25.840926 6.106952 Z M 19.404167 8.836544 L 17.530271 22.448956 C 17.487105 22.875534 17.436322 23.137067 17.35253 23.302112 C 17.35253 23.469696 17.268738 23.647437 17.184945 23.731229 C 17.103692 23.812482 16.966578 23.896274 16.758367 23.93944 C 16.633949 23.93944 16.331789 23.980067 15.821419 23.980067 L 10.831979 23.980067 C 10.529819 23.980067 10.311452 23.93944 10.146407 23.93944 C 9.978822 23.896274 9.801082 23.855648 9.636036 23.771856 C 9.458296 23.647437 9.290711 23.469696 9.082501 23.302112 C 8.90476 23.137067 8.615296 22.791742 8.135396 22.365164 L 7.843393 24.322853 C 7.665652 25.521334 7.541233 26.417656 7.500607 26.968652 C 7.500607 27.230185 7.457441 27.479023 7.457441 27.69739 C 7.457441 28.20776 7.541233 28.636878 7.718974 28.979663 C 7.967811 29.446868 8.521347 29.738871 9.41513 29.875985 C 10.019449 29.957238 11.040189 30.000404 12.5713 30.000404 L 17.009744 30.000404 C 18.551011 30.000404 19.571751 29.957238 20.17607 29.875985 C 21.196811 29.738871 21.872226 29.406242 22.217551 28.845088 C 22.517172 28.415971 22.727922 27.781182 22.903123 26.844234 C 23.027542 26.333864 23.195126 25.35375 23.372867 23.980067 L 25.454974 8.836544 Z M 27.935729 14.813716 C 27.247618 20.021523 26.82104 23.043118 26.655995 23.93944 C 26.435088 25.521334 26.31067 26.582701 26.270043 27.146393 L 26.270043 27.656764 C 26.270043 28.250926 26.394462 28.71813 26.572203 29.063456 C 26.82104 29.406242 27.247618 29.655079 27.935729 29.792193 C 28.529892 29.875985 29.728373 29.957238 31.561643 29.957238 L 41.578611 29.957238 C 43.50583 29.957238 44.744938 29.875985 45.3391 29.792193 C 46.15163 29.614452 46.705166 29.312293 47.047952 28.801923 C 47.296789 28.415971 47.515156 27.824348 47.682741 27.052445 C 47.807159 26.501448 47.9849 25.480707 48.193111 23.93944 L 49.475384 14.813716 C 49.734378 13.191195 49.858797 12.086663 49.858797 11.576293 L 49.858797 11.149714 C 49.858797 10.50223 49.777544 10.035025 49.556637 9.732866 C 49.348427 9.400236 48.965014 9.138703 48.454644 9.054911 C 47.860482 8.87717 46.537582 8.836544 44.442778 8.836544 L 34.634021 8.836544 C 32.92517 8.836544 31.769854 8.836544 31.175692 8.930493 C 30.319996 9.014285 29.728373 9.263122 29.342421 9.6897 C 28.915843 10.118817 28.570518 10.971974 28.321681 12.294873 C 28.227732 12.721452 28.103314 13.574608 27.935729 14.813716 Z M 36.08134 14.813716 L 43.422038 14.813716 L 42.350514 22.408329 C 42.266722 22.9187 42.226096 23.220859 42.142304 23.385904 C 42.142304 23.563645 42.048355 23.688064 41.964563 23.771856 C 41.880771 23.855648 41.756352 23.896274 41.578611 23.93944 L 32.706802 23.93944 L 33.778326 16.387992 C 33.821491 16.136616 33.862118 15.918248 33.862118 15.834456 C 33.94591 15.451044 34.029702 15.199667 34.123651 15.105718 C 34.24807 14.9813 34.45628 14.897508 34.715274 14.856881 C 34.923485 14.813716 35.403385 14.813716 36.08134 14.813716 Z M 52.293847 14.897508 C 52.293847 14.940673 52.116106 16.387992 51.689528 19.292786 C 51.605736 19.803156 51.521944 20.575059 51.346742 21.636426 C 51.219784 22.657167 51.095365 23.469696 51.011573 24.033389 C 50.836372 25.396915 50.75258 26.333864 50.668787 26.844234 C 50.668787 27.146393 50.628161 27.438396 50.628161 27.69739 C 50.628161 28.250926 50.709414 28.677504 50.876998 28.979663 C 51.138531 29.446868 51.689528 29.738871 52.542684 29.916612 C 53.147003 29.957238 54.210909 30.000404 55.835969 30.000404 L 65.644726 30.000404 C 65.553316 30.85356 65.469524 31.407096 65.385732 31.66609 C 65.30194 32.008876 65.218148 32.260252 65.042946 32.427837 C 64.915988 32.562412 64.707777 32.646204 64.405618 32.729996 C 64.146624 32.729996 63.636254 32.770622 62.864351 32.770622 L 55.490643 32.770622 C 54.210909 32.770622 53.273961 32.770622 52.720425 32.854415 C 51.991687 32.948363 51.440691 33.072782 51.054739 33.321619 C 50.544369 33.623779 50.117791 34.271263 49.815631 35.208212 C 49.648047 35.759208 49.345887 36.95769 48.959936 38.79096 L 64.405618 38.79096 C 66.447099 38.79096 67.769999 38.707168 68.374318 38.613219 C 69.146221 38.4888 69.656591 38.237424 69.989221 37.854012 C 70.375172 37.424894 70.677332 36.779949 70.842377 35.883627 C 70.979491 35.292004 71.144536 34.271263 71.312121 32.770622 L 71.698072 30.000404 L 72.551228 24.033389 L 73.061599 20.229734 L 73.830963 14.897508 C 73.957921 13.792975 74.051869 13.023611 74.051869 12.597033 L 74.051869 10.888181 C 73.998547 10.253393 73.830963 9.826814 73.488177 9.565281 C 73.320593 9.357071 73.018433 9.222495 72.635021 9.138703 C 72.383644 9.054911 72.000232 8.971119 71.530488 8.971119 C 71.060744 8.87717 70.083169 8.87717 68.582529 8.87717 L 59.19781 8.87717 C 57.491498 8.87717 56.346339 8.87717 55.74202 8.971119 C 54.802532 9.054911 54.167744 9.306288 53.741165 9.6897 C 53.398379 10.035025 53.09622 10.679971 52.844844 11.576293 C 52.763591 12.086663 52.542684 13.191195 52.293847 14.897508 Z M 59.885921 14.897508 L 67.769999 14.897508 L 66.708632 22.489582 C 66.62484 22.959326 66.584213 23.302112 66.500421 23.469696 C 66.447099 23.647437 66.406472 23.731229 66.282054 23.812482 C 66.198262 23.896274 66.030677 23.93944 65.81231 23.980067 C 65.644726 23.980067 65.342566 24.033389 64.875362 24.033389 L 57.105546 24.033389 L 57.626073 20.105315 L 58.136443 16.481941 C 58.220235 16.055363 58.260862 15.79383 58.260862 15.669411 C 58.344654 15.407878 58.385281 15.242833 58.479229 15.159041 C 58.563021 15.021926 58.730606 14.940673 58.895651 14.940673 C 59.073392 14.897508 59.375551 14.897508 59.885921 14.897508 Z M 76.563094 14.813716 C 75.877522 20.021523 75.450944 23.043118 75.28336 23.93944 C 75.064992 25.521334 74.940574 26.582701 74.897408 27.146393 L 74.897408 27.656764 C 74.897408 28.250926 75.021827 28.71813 75.199568 29.063456 C 75.450944 29.406242 75.877522 29.655079 76.563094 29.792193 C 77.157256 29.875985 78.355738 29.957238 80.189008 29.957238 L 90.208515 29.957238 C 92.135734 29.957238 93.374842 29.875985 93.966465 29.792193 C 94.778995 29.614452 95.332531 29.312293 95.675317 28.801923 C 95.926693 28.415971 96.14506 27.824348 96.310105 27.052445 C 96.437063 26.501448 96.612265 25.480707 96.820476 23.93944 L 98.102749 14.813716 C 98.361743 13.191195 98.488701 12.086663 98.488701 11.576293 L 98.488701 11.149714 C 98.488701 10.50223 98.404909 10.035025 98.186541 9.732866 C 97.97833 9.400236 97.592379 9.138703 97.082009 9.054911 C 96.487846 8.87717 95.164946 8.836544 93.072682 8.836544 L 83.261386 8.836544 C 81.552534 8.836544 80.397219 8.836544 79.803056 8.930493 C 78.9499 9.014285 78.355738 9.263122 77.969786 9.6897 C 77.543208 10.118817 77.200422 10.971974 76.949046 12.294873 C 76.855097 12.721452 76.730678 13.574608 76.563094 14.813716 Z M 84.708704 14.813716 L 92.051942 14.813716 L 90.977879 22.408329 C 90.894087 22.9187 90.85346 23.220859 90.769668 23.385904 C 90.769668 23.563645 90.67572 23.688064 90.591927 23.771856 C 90.510674 23.855648 90.383717 23.896274 90.208515 23.93944 L 81.334167 23.93944 L 82.40569 16.387992 C 82.448856 16.136616 82.489483 15.918248 82.489483 15.834456 C 82.573275 15.451044 82.657067 15.199667 82.751016 15.105718 C 82.875434 14.9813 83.083645 14.897508 83.345178 14.856881 C 83.553389 14.813716 84.03075 14.813716 84.708704 14.813716 Z M 84.708704 14.813716 " stroke="#007acc" stroke-width="11.200008" stroke-opacity="1" stroke-miterlimit="4"/><g fill="#ffffff" fill-opacity="1"><g transform="translate(44.92247, 77.886097)"><g><path d="M 30.253906 -45.941406 C 27.105469 -45.941406 25.003906 -45.875 24.019531 -45.675781 C 23.101562 -45.546875 22.3125 -45.21875 21.789062 -44.691406 C 21.261719 -44.167969 20.804688 -43.183594 20.476562 -41.804688 C 20.34375 -41.019531 20.015625 -39.3125 19.621094 -36.75 L 19.425781 -34.980469 L 28.746094 -34.980469 L 28.941406 -36.75 Z M 19.03125 -32.550781 L 16.144531 -11.617188 C 16.078125 -10.960938 16.011719 -10.566406 15.882812 -10.304688 C 15.882812 -10.042969 15.75 -9.777344 15.621094 -9.648438 C 15.488281 -9.515625 15.292969 -9.386719 14.964844 -9.320312 C 14.765625 -9.320312 14.308594 -9.253906 13.519531 -9.253906 L 5.839844 -9.253906 C 5.382812 -9.253906 5.054688 -9.320312 4.789062 -9.320312 C 4.527344 -9.386719 4.265625 -9.449219 4.003906 -9.582031 C 3.742188 -9.777344 3.476562 -10.042969 3.148438 -10.304688 C 2.886719 -10.566406 2.429688 -11.089844 1.707031 -11.746094 L 1.246094 -8.730469 C 0.984375 -6.890625 0.789062 -5.511719 0.722656 -4.660156 C 0.722656 -4.265625 0.65625 -3.871094 0.65625 -3.542969 C 0.65625 -2.757812 0.789062 -2.101562 1.050781 -1.574219 C 1.445312 -0.851562 2.296875 -0.394531 3.675781 -0.195312 C 4.59375 -0.0664062 6.167969 0 8.53125 0 L 15.355469 0 C 17.71875 0 19.292969 -0.0664062 20.214844 -0.195312 C 21.789062 -0.394531 22.839844 -0.917969 23.363281 -1.773438 C 23.824219 -2.429688 24.152344 -3.414062 24.414062 -4.855469 C 24.609375 -5.644531 24.875 -7.152344 25.136719 -9.253906 L 28.351562 -32.550781 Z M 19.03125 -32.550781 "/></g></g></g><g fill="#ffffff" fill-opacity="1"><g transform="translate(73.861982, 77.886097)"><g><path d="M 3.214844 -23.363281 C 2.164062 -15.355469 1.507812 -10.699219 1.246094 -9.320312 C 0.917969 -6.890625 0.722656 -5.25 0.65625 -4.398438 L 0.65625 -3.609375 C 0.65625 -2.691406 0.851562 -1.96875 1.117188 -1.445312 C 1.507812 -0.917969 2.164062 -0.523438 3.214844 -0.328125 C 4.132812 -0.195312 5.972656 -0.0664062 8.792969 -0.0664062 L 24.21875 -0.0664062 C 27.171875 -0.0664062 29.074219 -0.195312 29.992188 -0.328125 C 31.238281 -0.589844 32.09375 -1.050781 32.617188 -1.835938 C 33.011719 -2.429688 33.339844 -3.347656 33.601562 -4.527344 C 33.796875 -5.382812 34.0625 -6.957031 34.390625 -9.320312 L 36.359375 -23.363281 C 36.75 -25.859375 36.949219 -27.5625 36.949219 -28.351562 L 36.949219 -29.007812 C 36.949219 -29.992188 36.816406 -30.714844 36.488281 -31.171875 C 36.160156 -31.699219 35.570312 -32.09375 34.78125 -32.222656 C 33.863281 -32.484375 31.828125 -32.550781 28.613281 -32.550781 L 13.519531 -32.550781 C 10.894531 -32.550781 9.121094 -32.550781 8.203125 -32.421875 C 6.890625 -32.289062 5.972656 -31.894531 5.382812 -31.238281 C 4.726562 -30.582031 4.199219 -29.269531 3.804688 -27.234375 C 3.675781 -26.578125 3.476562 -25.265625 3.214844 -23.363281 Z M 15.75 -23.363281 L 27.039062 -23.363281 L 25.398438 -11.683594 C 25.265625 -10.894531 25.203125 -10.433594 25.070312 -10.171875 C 25.070312 -9.910156 24.9375 -9.714844 24.808594 -9.582031 C 24.675781 -9.449219 24.480469 -9.386719 24.21875 -9.320312 L 10.566406 -9.320312 L 12.207031 -20.933594 C 12.273438 -21.328125 12.339844 -21.65625 12.339844 -21.789062 C 12.46875 -22.378906 12.601562 -22.773438 12.730469 -22.90625 C 12.929688 -23.101562 13.257812 -23.234375 13.652344 -23.296875 C 13.980469 -23.363281 14.699219 -23.363281 15.75 -23.363281 Z M 15.75 -23.363281 "/></g></g></g><g fill="#ffffff" fill-opacity="1"><g transform="translate(111.398052, 77.886097)"><g><path d="M 3.148438 -23.234375 C 3.148438 -23.167969 2.886719 -20.933594 2.230469 -16.472656 C 2.101562 -15.683594 1.96875 -14.503906 1.707031 -12.863281 C 1.507812 -11.289062 1.3125 -10.042969 1.179688 -9.1875 C 0.917969 -7.085938 0.789062 -5.644531 0.65625 -4.855469 C 0.65625 -4.398438 0.589844 -3.9375 0.589844 -3.542969 C 0.589844 -2.691406 0.722656 -2.035156 0.984375 -1.574219 C 1.378906 -0.851562 2.230469 -0.394531 3.542969 -0.132812 C 4.460938 -0.0664062 6.101562 0 8.597656 0 L 23.691406 0 C 23.5625 1.3125 23.429688 2.164062 23.296875 2.558594 C 23.167969 3.085938 23.035156 3.476562 22.773438 3.742188 C 22.574219 3.9375 22.246094 4.070312 21.789062 4.199219 C 21.394531 4.199219 20.605469 4.265625 19.425781 4.265625 L 8.074219 4.265625 C 6.101562 4.265625 4.660156 4.265625 3.804688 4.398438 C 2.691406 4.527344 1.835938 4.726562 1.246094 5.117188 C 0.460938 5.578125 -0.195312 6.5625 -0.65625 8.007812 C -0.917969 8.859375 -1.378906 10.699219 -1.96875 13.519531 L 21.789062 13.519531 C 24.9375 13.519531 26.972656 13.386719 27.890625 13.257812 C 29.074219 13.058594 29.859375 12.667969 30.386719 12.074219 C 30.976562 11.417969 31.4375 10.433594 31.699219 9.058594 C 31.894531 8.136719 32.15625 6.5625 32.421875 4.265625 L 33.011719 0 L 34.324219 -9.1875 L 35.109375 -15.027344 L 36.292969 -23.234375 C 36.488281 -24.9375 36.621094 -26.121094 36.621094 -26.777344 L 36.621094 -29.402344 C 36.554688 -30.386719 36.292969 -31.042969 35.765625 -31.4375 C 35.503906 -31.765625 35.046875 -31.960938 34.453125 -32.09375 C 34.0625 -32.222656 33.46875 -32.355469 32.75 -32.355469 C 32.027344 -32.484375 30.515625 -32.484375 28.21875 -32.484375 L 13.78125 -32.484375 C 11.15625 -32.484375 9.386719 -32.484375 8.464844 -32.355469 C 7.023438 -32.222656 6.039062 -31.828125 5.382812 -31.238281 C 4.855469 -30.714844 4.398438 -29.730469 4.003906 -28.351562 C 3.871094 -27.5625 3.542969 -25.859375 3.148438 -23.234375 Z M 14.832031 -23.234375 L 26.972656 -23.234375 L 25.332031 -11.550781 C 25.203125 -10.828125 25.136719 -10.304688 25.003906 -10.042969 C 24.9375 -9.777344 24.875 -9.648438 24.675781 -9.515625 C 24.546875 -9.386719 24.28125 -9.320312 23.953125 -9.253906 C 23.691406 -9.253906 23.234375 -9.1875 22.511719 -9.1875 L 10.566406 -9.1875 L 11.355469 -15.226562 L 12.140625 -20.804688 C 12.273438 -21.460938 12.339844 -21.855469 12.339844 -22.050781 C 12.46875 -22.445312 12.535156 -22.707031 12.667969 -22.839844 C 12.796875 -23.035156 13.058594 -23.167969 13.324219 -23.167969 C 13.585938 -23.234375 14.042969 -23.234375 14.832031 -23.234375 Z M 14.832031 -23.234375 "/></g></g></g><g fill="#ffffff" fill-opacity="1"><g transform="translate(148.671634, 77.886097)"><g><path d="M 3.214844 -23.363281 C 2.164062 -15.355469 1.507812 -10.699219 1.246094 -9.320312 C 0.917969 -6.890625 0.722656 -5.25 0.65625 -4.398438 L 0.65625 -3.609375 C 0.65625 -2.691406 0.851562 -1.96875 1.117188 -1.445312 C 1.507812 -0.917969 2.164062 -0.523438 3.214844 -0.328125 C 4.132812 -0.195312 5.972656 -0.0664062 8.792969 -0.0664062 L 24.21875 -0.0664062 C 27.171875 -0.0664062 29.074219 -0.195312 29.992188 -0.328125 C 31.238281 -0.589844 32.09375 -1.050781 32.617188 -1.835938 C 33.011719 -2.429688 33.339844 -3.347656 33.601562 -4.527344 C 33.796875 -5.382812 34.0625 -6.957031 34.390625 -9.320312 L 36.359375 -23.363281 C 36.75 -25.859375 36.949219 -27.5625 36.949219 -28.351562 L 36.949219 -29.007812 C 36.949219 -29.992188 36.816406 -30.714844 36.488281 -31.171875 C 36.160156 -31.699219 35.570312 -32.09375 34.78125 -32.222656 C 33.863281 -32.484375 31.828125 -32.550781 28.613281 -32.550781 L 13.519531 -32.550781 C 10.894531 -32.550781 9.121094 -32.550781 8.203125 -32.421875 C 6.890625 -32.289062 5.972656 -31.894531 5.382812 -31.238281 C 4.726562 -30.582031 4.199219 -29.269531 3.804688 -27.234375 C 3.675781 -26.578125 3.476562 -25.265625 3.214844 -23.363281 Z M 15.75 -23.363281 L 27.039062 -23.363281 L 25.398438 -11.683594 C 25.265625 -10.894531 25.203125 -10.433594 25.070312 -10.171875 C 25.070312 -9.910156 24.9375 -9.714844 24.808594 -9.582031 C 24.675781 -9.449219 24.480469 -9.386719 24.21875 -9.320312 L 10.566406 -9.320312 L 12.207031 -20.933594 C 12.273438 -21.328125 12.339844 -21.65625 12.339844 -21.789062 C 12.46875 -22.378906 12.601562 -22.773438 12.730469 -22.90625 C 12.929688 -23.101562 13.257812 -23.234375 13.652344 -23.296875 C 13.980469 -23.363281 14.699219 -23.363281 15.75 -23.363281 Z M 15.75 -23.363281 "/></g></g></g><g clip-path="url(#92638f8555)"><path fill="#ffffff" d="M 156.570312 84.722656 C 156.640625 85.367188 156.816406 85.976562 157.09375 86.558594 C 157.375 87.144531 157.742188 87.664062 158.199219 88.117188 C 158.65625 88.574219 159.175781 88.945312 159.757812 89.222656 C 160.339844 89.503906 160.949219 89.675781 161.59375 89.746094 C 163.621094 89.949219 165.65625 90.042969 167.695312 90.023438 C 165.65625 90.007812 163.621094 90.101562 161.59375 90.304688 C 160.949219 90.375 160.339844 90.546875 159.757812 90.828125 C 159.175781 91.105469 158.65625 91.472656 158.199219 91.929688 C 157.742188 92.386719 157.375 92.90625 157.09375 93.488281 C 156.816406 94.070312 156.640625 94.683594 156.570312 95.328125 C 156.367188 97.355469 156.273438 99.390625 156.292969 101.429688 C 156.308594 99.390625 156.214844 97.355469 156.011719 95.328125 C 155.945312 94.683594 155.769531 94.070312 155.488281 93.488281 C 155.210938 92.90625 154.84375 92.386719 154.386719 91.929688 C 153.929688 91.472656 153.410156 91.105469 152.828125 90.828125 C 152.246094 90.546875 151.632812 90.375 150.992188 90.304688 C 148.960938 90.101562 146.925781 90.007812 144.890625 90.023438 C 146.925781 90.042969 148.960938 89.949219 150.992188 89.746094 C 151.632812 89.675781 152.246094 89.503906 152.828125 89.222656 C 153.410156 88.945312 153.929688 88.574219 154.386719 88.117188 C 154.84375 87.664062 155.210938 87.144531 155.488281 86.558594 C 155.769531 85.976562 155.945312 85.367188 156.011719 84.722656 C 156.214844 82.695312 156.308594 80.660156 156.292969 78.621094 C 156.273438 80.660156 156.367188 82.695312 156.570312 84.722656 Z M 156.570312 84.722656 " fill-opacity="1" fill-rule="nonzero"/></g><g clip-path="url(#cd246820c0)"><path fill="#ffffff" d="M 164.964844 81.726562 C 165.007812 82.132812 165.175781 82.484375 165.464844 82.773438 C 165.757812 83.066406 166.105469 83.234375 166.515625 83.277344 C 167.140625 83.339844 167.769531 83.367188 168.402344 83.363281 C 167.769531 83.359375 167.140625 83.386719 166.515625 83.449219 C 166.105469 83.492188 165.757812 83.660156 165.464844 83.953125 C 165.175781 84.242188 165.007812 84.59375 164.964844 85 C 164.902344 85.628906 164.871094 86.257812 164.878906 86.886719 C 164.882812 86.257812 164.855469 85.628906 164.792969 85 C 164.746094 84.59375 164.578125 84.242188 164.289062 83.953125 C 163.996094 83.660156 163.648438 83.492188 163.238281 83.449219 C 162.613281 83.386719 161.984375 83.359375 161.355469 83.363281 C 161.984375 83.367188 162.613281 83.339844 163.238281 83.277344 C 163.648438 83.234375 163.996094 83.066406 164.289062 82.773438 C 164.578125 82.484375 164.746094 82.132812 164.789062 81.726562 C 164.855469 81.097656 164.882812 80.46875 164.878906 79.839844 C 164.871094 80.46875 164.902344 81.097656 164.964844 81.726562 Z M 164.964844 81.726562 " fill-opacity="1" fill-rule="nonzero"/></g><g clip-path="url(#9c0a5d9b1c)"><path fill="#ffffff" d="M 155.894531 84.722656 C 155.828125 85.367188 155.652344 85.976562 155.371094 86.558594 C 155.09375 87.144531 154.726562 87.664062 154.269531 88.117188 C 153.8125 88.574219 153.292969 88.945312 152.710938 89.222656 C 152.128906 89.503906 151.515625 89.675781 150.875 89.746094 C 148.84375 89.949219 146.808594 90.042969 144.769531 90.023438 C 146.808594 90.007812 148.84375 90.101562 150.875 90.304688 C 151.515625 90.375 152.128906 90.546875 152.710938 90.828125 C 153.292969 91.105469 153.8125 91.472656 154.269531 91.929688 C 154.726562 92.386719 155.09375 92.90625 155.371094 93.488281 C 155.652344 94.070312 155.824219 94.683594 155.894531 95.328125 C 156.097656 97.355469 156.191406 99.390625 156.175781 101.429688 C 156.15625 99.390625 156.25 97.355469 156.453125 95.328125 C 156.523438 94.683594 156.699219 94.070312 156.976562 93.488281 C 157.253906 92.90625 157.625 92.386719 158.082031 91.929688 C 158.535156 91.472656 159.054688 91.105469 159.640625 90.828125 C 160.222656 90.546875 160.832031 90.375 161.476562 90.304688 C 163.503906 90.101562 165.539062 90.007812 167.578125 90.023438 C 165.539062 90.042969 163.503906 89.949219 161.476562 89.746094 C 160.832031 89.675781 160.222656 89.503906 159.640625 89.222656 C 159.058594 88.945312 158.539062 88.574219 158.082031 88.117188 C 157.625 87.664062 157.253906 87.144531 156.976562 86.558594 C 156.699219 85.976562 156.523438 85.367188 156.453125 84.722656 C 156.25 82.695312 156.15625 80.660156 156.175781 78.621094 C 156.191406 80.660156 156.097656 82.695312 155.894531 84.722656 Z M 155.894531 84.722656 " fill-opacity="1" fill-rule="nonzero"/></g><g clip-path="url(#351ae47196)"><path fill="#ffffff" d="M 147.503906 81.726562 C 147.457031 82.132812 147.289062 82.484375 147 82.773438 C 146.710938 83.066406 146.359375 83.234375 145.949219 83.277344 C 145.324219 83.339844 144.695312 83.367188 144.066406 83.363281 C 144.695312 83.359375 145.324219 83.386719 145.949219 83.449219 C 146.359375 83.492188 146.710938 83.660156 147 83.953125 C 147.289062 84.242188 147.457031 84.59375 147.503906 85 C 147.566406 85.628906 147.59375 86.257812 147.589844 86.886719 C 147.582031 86.257812 147.613281 85.628906 147.675781 85 C 147.71875 84.59375 147.886719 84.242188 148.179688 83.953125 C 148.46875 83.660156 148.816406 83.492188 149.226562 83.449219 C 149.855469 83.386719 150.480469 83.359375 151.113281 83.363281 C 150.480469 83.367188 149.855469 83.339844 149.226562 83.277344 C 148.816406 83.234375 148.46875 83.066406 148.179688 82.773438 C 147.886719 82.484375 147.71875 82.132812 147.675781 81.726562 C 147.613281 81.097656 147.582031 80.46875 147.589844 79.839844 C 147.59375 80.46875 147.566406 81.097656 147.503906 81.726562 Z M 147.503906 81.726562 " fill-opacity="1" fill-rule="nonzero"/></g><g clip-path="url(#925c56ecfa)"><g clip-path="url(#6a6f835a56)"><path fill="#007acc" d="M 186.175781 1.542969 L 285 1.542969 L 285 100.363281 L 186.175781 100.363281 Z M 186.175781 1.542969 " fill-opacity="1" fill-rule="nonzero"/></g></g><path fill="#ffffff" d="M 232.652344 95.722656 C 213.992188 94.4375 197.605469 79.667969 192.980469 61.78125 C 188.714844 43.238281 197.1875 22.359375 213.722656 12.675781 C 224.355469 6.296875 237.699219 5.5 249.46875 8.820312 C 264.007812 13.308594 275.070312 26.296875 278.957031 40.789062 C 282.445312 54.144531 279.929688 69.308594 270.652344 79.832031 C 262.253906 90.335938 248.824219 96.390625 235.398438 95.847656 C 234.480469 95.832031 233.566406 95.785156 232.652344 95.722656 Z M 243.773438 93.621094 C 247.121094 93.328125 246.535156 92.296875 243.488281 92.035156 C 238.046875 90.984375 232.171875 90.957031 226.921875 92.800781 C 231.542969 95.039062 237.683594 94.460938 242.859375 93.792969 Z M 227.289062 90.667969 C 229.675781 88.21875 227.183594 82.367188 225.097656 80.050781 C 220.429688 77.660156 216.808594 73.75 212.539062 70.804688 C 209.324219 69.628906 206.1875 71.863281 203.082031 72.617188 C 203.066406 75.703125 202.867188 79.183594 205.570312 81.328125 C 210.019531 85.738281 215.390625 89.601562 221.449219 91.359375 C 223.398438 91.449219 225.441406 91.332031 227.289062 90.667969 Z M 252.875 90.789062 C 260.621094 87.4375 267.882812 82.054688 272.25 74.726562 C 273.824219 72.617188 274.980469 68.925781 270.871094 70.144531 C 265.710938 73.402344 261.054688 77.429688 255.769531 80.515625 C 252.5625 83.058594 250.253906 86.5625 247.976562 89.910156 C 248.773438 91.765625 251.351562 91.320312 252.875 90.789062 Z M 258.125 77.324219 C 262.019531 74.121094 267.652344 72.054688 269.695312 67.191406 C 270.617188 63.371094 270.691406 59.414062 271.074219 55.511719 C 267.195312 52.058594 262.433594 49.714844 257.773438 47.5 C 253.171875 47.871094 249.453125 51.972656 245.8125 54.632812 C 243.871094 55.707031 244.371094 58.121094 243.84375 59.972656 C 243.136719 64.300781 242.320312 68.617188 241.851562 72.980469 C 245.472656 75.667969 249.515625 78.136719 253.917969 79.175781 C 255.511719 79.195312 256.832031 78.113281 258.125 77.324219 Z M 230.359375 78 C 233.886719 76.648438 238.550781 75.632812 240.203125 71.882812 C 241.433594 66.632812 242.113281 61.257812 242.761719 55.910156 C 239.261719 52.566406 235.519531 49.042969 230.929688 47.300781 C 226.96875 47.238281 223.609375 50.046875 220.082031 51.582031 C 215.339844 52.875 213.691406 57.203125 213.484375 61.671875 C 212.09375 66.09375 213.691406 70.636719 217.691406 73.074219 C 221.183594 75.65625 225.671875 79.777344 230.359375 78 Z M 200.851562 71.800781 C 197.992188 66.496094 196.019531 60.6875 195.230469 54.710938 C 192.402344 55.28125 194.972656 62.246094 195.753906 65.085938 C 197.085938 68.921875 199.128906 72.449219 201.242188 75.898438 C 201.628906 74.480469 201.859375 73.070312 200.851562 71.800781 Z M 199.621094 48.1875 C 200.867188 46.398438 202.855469 44.984375 203.605469 42.941406 C 204.929688 36.753906 207.085938 30.78125 210.171875 25.25 C 210.039062 21.675781 206.058594 19.503906 204.078125 23.441406 C 198.429688 30.734375 194 39.617188 193.808594 48.992188 C 193.0625 52.207031 195.855469 54.546875 197.460938 50.738281 C 198.183594 49.890625 198.902344 49.039062 199.621094 48.1875 Z M 272.335938 52.621094 C 274.730469 49.46875 278.035156 45.730469 277.175781 41.464844 C 275.679688 33.375 271.535156 25.695312 265.171875 20.425781 C 263.285156 19.621094 259.832031 16.664062 258.511719 19.457031 C 256.566406 23.207031 251.71875 26.753906 253.464844 31.425781 C 254.960938 36.039062 256.054688 40.859375 258.234375 45.203125 C 262.246094 48.339844 266.894531 50.78125 271.570312 52.839844 Z M 218.945312 50.523438 C 222.652344 48.648438 226.25 46.574219 229.863281 44.527344 C 231.082031 40.261719 232.609375 36.089844 234.035156 31.894531 C 234.234375 27.359375 230.199219 24.097656 227.496094 20.914062 C 224.84375 16.660156 220.355469 19.925781 217.082031 21.480469 C 209.875 25.339844 208.21875 33.832031 205.773438 40.921875 C 206.113281 43.578125 208.535156 45.792969 210.308594 47.777344 C 212.753906 50.238281 215.503906 53.527344 218.945312 50.523438 Z M 245.523438 27.585938 C 247.441406 27.324219 249.582031 27.515625 251.359375 26.972656 C 254.023438 24.101562 256.363281 20.734375 257.472656 16.957031 C 256.136719 13.152344 251.699219 11.417969 248.140625 10.121094 C 243.605469 8.769531 238.75 8.105469 234.042969 8.640625 C 230.644531 10.378906 224.546875 15.429688 227.988281 19.339844 C 230.511719 22.351562 233.195312 25.214844 235.925781 28.035156 C 239.128906 28.066406 242.328125 27.8125 245.523438 27.585938 Z M 245.523438 27.585938 " fill-opacity="1" fill-rule="nonzero"/></svg>