<svg xmlns="http://www.w3.org/2000/svg" xmlns:xlink="http://www.w3.org/1999/xlink" width="500" zoomAndPan="magnify" viewBox="0 0 375 374.999991" height="500" preserveAspectRatio="xMidYMid meet" version="1.0"><defs><clipPath id="3ea7330b4a"><path d="M 4.503906 103 L 315 103 L 315 354 L 4.503906 354 Z M 4.503906 103 " clip-rule="nonzero"/></clipPath><clipPath id="253bf139f1"><path d="M 82 160 L 320 160 L 320 372 L 82 372 Z M 82 160 " clip-rule="nonzero"/></clipPath></defs><path fill="#358fd3" d="M 284.550781 129.78125 C 284.445312 131.347656 285.097656 132.949219 286.445312 134.003906 C 287.445312 134.792969 288.65625 135.132812 289.824219 135.0625 C 287.929688 133.386719 286.167969 131.625 284.550781 129.78125 " fill-opacity="1" fill-rule="nonzero"/><path fill="#358fd3" d="M 292.425781 126.390625 C 291.441406 125.613281 290.257812 125.269531 289.101562 125.328125 C 290.683594 127.15625 292.433594 128.902344 294.320312 130.554688 C 294.410156 129.007812 293.753906 127.429688 292.425781 126.390625 " fill-opacity="1" fill-rule="nonzero"/><path fill="#999999" d="M 362.542969 105.867188 C 357.171875 95.90625 347.808594 87.191406 336.183594 81.332031 C 324.550781 75.46875 311.980469 73.121094 300.777344 74.730469 C 289.15625 76.394531 280.347656 82.085938 275.980469 90.753906 C 273.15625 96.363281 272.4375 102.71875 273.785156 109.304688 C 275.425781 107.695312 277.578125 106.800781 279.789062 106.703125 C 279.070312 102 279.683594 97.539062 281.660156 93.621094 C 285.0625 86.859375 292.175781 82.390625 301.679688 81.027344 C 303.484375 80.769531 305.332031 80.628906 307.207031 80.597656 C 315.660156 80.480469 324.746094 82.691406 333.316406 87.011719 C 343.792969 92.292969 352.183594 100.0625 356.945312 108.886719 C 361.503906 117.339844 362.136719 125.714844 358.730469 132.476562 C 355.324219 139.230469 348.214844 143.703125 338.710938 145.066406 C 328.789062 146.488281 317.550781 144.363281 307.074219 139.082031 C 302.757812 136.910156 298.800781 134.308594 295.300781 131.390625 L 291.625 136.601562 C 295.398438 139.699219 299.628906 142.457031 304.210938 144.761719 C 313.699219 149.546875 323.808594 151.984375 333.296875 151.851562 C 335.4375 151.824219 337.550781 151.660156 339.613281 151.363281 C 351.234375 149.695312 360.042969 144.007812 364.410156 135.339844 C 368.78125 126.667969 368.117188 116.203125 362.542969 105.867188 " fill-opacity="1" fill-rule="nonzero"/><path fill="#999999" d="M 294.320312 130.554688 C 294.269531 131.5 293.9375 132.445312 293.308594 133.242188 C 292.433594 134.359375 291.148438 134.980469 289.824219 135.0625 C 290.410156 135.582031 291.011719 136.097656 291.625 136.601562 L 295.300781 131.390625 C 294.96875 131.117188 294.644531 130.835938 294.320312 130.554688 " fill-opacity="1" fill-rule="nonzero"/><path fill="#83b9ea" d="M 295.4375 115.417969 L 285.421875 108.347656 C 283.71875 107.144531 281.734375 106.617188 279.789062 106.703125 C 277.578125 106.800781 275.425781 107.695312 273.785156 109.304688 C 273.410156 109.679688 273.054688 110.085938 272.742188 110.535156 L 260.300781 128.167969 L 285.1875 145.730469 L 291.625 136.601562 C 291.011719 136.097656 290.410156 135.582031 289.824219 135.0625 C 288.65625 135.132812 287.445312 134.792969 286.445312 134.003906 C 285.097656 132.949219 284.445312 131.347656 284.550781 129.78125 C 284.613281 128.851562 284.941406 127.933594 285.558594 127.152344 C 286.449219 126.019531 287.753906 125.394531 289.101562 125.328125 C 290.257812 125.269531 291.441406 125.613281 292.425781 126.390625 C 293.753906 127.429688 294.410156 129.007812 294.320312 130.554688 C 294.644531 130.835938 294.96875 131.117188 295.300781 131.390625 L 297.625 128.097656 C 300.507812 124.007812 299.527344 118.296875 295.4375 115.417969 " fill-opacity="1" fill-rule="nonzero"/><path fill="#999999" d="M 289.101562 125.328125 C 287.753906 125.394531 286.449219 126.019531 285.558594 127.152344 C 284.941406 127.933594 284.613281 128.851562 284.550781 129.78125 C 286.167969 131.625 287.929688 133.386719 289.824219 135.0625 C 291.148438 134.980469 292.433594 134.359375 293.308594 133.242188 C 293.9375 132.445312 294.269531 131.5 294.320312 130.554688 C 292.433594 128.902344 290.683594 127.15625 289.101562 125.328125 " fill-opacity="1" fill-rule="nonzero"/><g clip-path="url(#3ea7330b4a)"><path fill="#83b9ea" d="M 256.574219 171.164062 C 256.671875 171.089844 256.773438 171.015625 256.875 170.945312 C 274.636719 157.863281 293.296875 158.015625 314.355469 164.621094 C 298.101562 136.585938 251.597656 115.660156 251.597656 115.660156 C 221.964844 102.675781 197.203125 97.167969 173.988281 114.265625 C 173.886719 114.335938 173.789062 114.410156 173.6875 114.484375 C 107.734375 163.304688 50.570312 223.148438 4.765625 291.457031 L 82.871094 353.332031 C 128.5 286.285156 191.851562 219.074219 256.574219 171.164062 " fill-opacity="1" fill-rule="nonzero"/></g><g clip-path="url(#253bf139f1)"><path fill="#358fd3" d="M 107.335938 370.710938 C 130.8125 335.839844 157.253906 303.191406 186.3125 273.097656 C 195.894531 263.179688 210.539062 260.222656 223.292969 265.472656 C 231.917969 269.019531 241.363281 270.976562 251.265625 270.976562 C 291.929688 270.976562 319.886719 223.988281 319.886719 183.257812 C 319.886719 176.816406 317.796875 170.558594 314.355469 164.621094 C 293.296875 158.015625 274.636719 157.863281 256.875 170.945312 C 256.773438 171.015625 256.671875 171.089844 256.574219 171.164062 C 191.851562 219.074219 128.5 286.285156 82.871094 353.332031 L 106.457031 372.019531 L 107.335938 370.710938 " fill-opacity="1" fill-rule="nonzero"/></g><path fill="#0c7ec4" d="M 213.042969 193.660156 C 206.96875 200.453125 197.601562 202.078125 192.214844 197.265625 L 154.808594 163.808594 C 149.425781 159 149.996094 149.503906 156.070312 142.710938 L 159.871094 138.460938 L 216.84375 189.40625 L 213.042969 193.660156 " fill-opacity="1" fill-rule="nonzero"/><path fill="#83b9ea" d="M 189.109375 125.445312 L 226.519531 158.898438 C 231.898438 163.710938 231.328125 173.207031 225.253906 179.996094 L 216.84375 189.40625 L 159.871094 138.460938 L 168.285156 129.050781 C 174.355469 122.257812 183.726562 120.632812 189.109375 125.445312 " fill-opacity="1" fill-rule="nonzero"/><path fill="#358fd3" d="M 180.523438 125.5 C 180.292969 125.5 180.054688 125.503906 179.820312 125.519531 C 176.546875 125.703125 173.558594 127.136719 171.394531 129.554688 L 156.921875 145.746094 C 154.757812 148.167969 153.664062 151.300781 153.847656 154.570312 C 154.027344 157.84375 155.464844 160.832031 157.882812 163 L 192.683594 194.117188 C 197.707031 198.609375 205.445312 198.175781 209.933594 193.152344 L 224.40625 176.960938 C 228.894531 171.941406 228.464844 164.203125 223.441406 159.710938 L 188.644531 128.589844 C 186.394531 126.582031 183.535156 125.5 180.523438 125.5 Z M 200.816406 202.535156 C 196.65625 202.535156 192.480469 201.0625 189.144531 198.078125 L 154.34375 166.957031 C 150.867188 163.847656 148.804688 159.550781 148.542969 154.867188 C 148.28125 150.183594 149.851562 145.683594 152.960938 142.207031 L 167.433594 126.015625 C 170.542969 122.535156 174.839844 120.476562 179.523438 120.214844 C 184.210938 119.949219 188.703125 121.523438 192.183594 124.632812 L 226.984375 155.75 C 234.1875 162.195312 234.808594 173.296875 228.367188 180.503906 L 213.890625 196.695312 C 210.433594 200.5625 205.636719 202.535156 200.816406 202.535156 " fill-opacity="1" fill-rule="nonzero"/><path fill="#83b9ea" d="M 151.867188 98.851562 C 151.320312 98.851562 150.78125 98.582031 150.464844 98.085938 L 117.679688 46.707031 C 117.183594 45.9375 117.410156 44.910156 118.183594 44.417969 C 118.960938 43.925781 119.984375 44.152344 120.476562 44.925781 L 153.261719 96.296875 C 153.757812 97.070312 153.53125 98.097656 152.757812 98.589844 C 152.480469 98.769531 152.171875 98.851562 151.867188 98.851562 " fill-opacity="1" fill-rule="nonzero"/><path fill="#83b9ea" d="M 172.015625 58.085938 C 171.21875 58.085938 170.515625 57.515625 170.378906 56.703125 L 161.078125 2.097656 C 160.925781 1.195312 161.53125 0.335938 162.4375 0.183594 C 163.339844 0.0390625 164.195312 0.636719 164.351562 1.542969 L 173.652344 56.144531 C 173.804688 57.046875 173.199219 57.90625 172.292969 58.058594 C 172.199219 58.078125 172.101562 58.085938 172.015625 58.085938 " fill-opacity="1" fill-rule="nonzero"/><path fill="#83b9ea" d="M 203.394531 78.265625 C 203.292969 78.265625 203.191406 78.257812 203.085938 78.238281 C 202.1875 78.070312 201.59375 77.199219 201.765625 76.296875 L 214.863281 6.808594 C 215.03125 5.90625 215.902344 5.3125 216.804688 5.484375 C 217.703125 5.652344 218.296875 6.523438 218.128906 7.421875 L 205.027344 76.914062 C 204.871094 77.710938 204.175781 78.265625 203.394531 78.265625 " fill-opacity="1" fill-rule="nonzero"/><path fill="#83b9ea" d="M 212.382812 357.703125 C 212.363281 357.703125 212.347656 357.703125 212.332031 357.703125 C 211.417969 357.675781 210.691406 356.914062 210.71875 355.996094 L 212.152344 303.457031 C 212.175781 302.542969 212.941406 301.796875 213.855469 301.847656 C 214.769531 301.871094 215.496094 302.632812 215.46875 303.550781 L 214.039062 356.085938 C 214.011719 356.988281 213.273438 357.703125 212.382812 357.703125 " fill-opacity="1" fill-rule="nonzero"/><path fill="#83b9ea" d="M 296.851562 342.410156 C 296.425781 342.410156 295.996094 342.246094 295.671875 341.917969 L 246.464844 292.050781 C 245.824219 291.398438 245.828125 290.347656 246.484375 289.703125 C 247.136719 289.058594 248.183594 289.0625 248.828125 289.722656 L 298.03125 339.582031 C 298.675781 340.238281 298.671875 341.289062 298.015625 341.933594 C 297.695312 342.25 297.273438 342.410156 296.851562 342.410156 " fill-opacity="1" fill-rule="nonzero"/></svg>